<svg width="108" height="36" viewBox="0 0 108 36" fill="none" xmlns="http://www.w3.org/2000/svg">
<g id="actions">
<path id="Vector" d="M34 34.5L26.2667 26.7667M30.4444 16.7222C30.4444 24.5769 24.0769 30.9444 16.2222 30.9444C8.36751 30.9444 2 24.5769 2 16.7222C2 8.86751 8.36751 2.5 16.2222 2.5C24.0769 2.5 30.4444 8.86751 30.4444 16.7222Z" stroke="white" stroke-width="3" stroke-linecap="round" stroke-linejoin="round"/>
<path id="Vector_2" d="M106 33.5V29.9444C106 28.0585 105.157 26.2497 103.657 24.9161C102.157 23.5825 100.122 22.8333 98 22.8333H82C79.8783 22.8333 77.8434 23.5825 76.3431 24.9161C74.8429 26.2497 74 28.0585 74 29.9444V33.5M98 8.61111C98 12.5385 94.4183 15.7222 90 15.7222C85.5817 15.7222 82 12.5385 82 8.61111C82 4.68375 85.5817 1.5 90 1.5C94.4183 1.5 98 4.68375 98 8.61111Z" stroke="white" stroke-width="3" stroke-linecap="round" stroke-linejoin="round"/>
</g>
</svg>
