<svg width="38" height="38" viewBox="0 0 38 38" fill="none" xmlns="http://www.w3.org/2000/svg">
<g id="Vector" filter="url(#filter0_d_1_389)">
<path d="M4 10.2857C4 6.68538 4 4.88521 4.70067 3.51006C5.317 2.30045 6.30045 1.317 7.51006 0.700672C8.88521 0 10.6854 0 14.2857 0H23.7143C27.3146 0 29.1148 0 30.4899 0.700672C31.6996 1.317 32.683 2.30045 33.2993 3.51006C34 4.88521 34 6.68538 34 10.2857V19.7143C34 23.3146 34 25.1148 33.2993 26.4899C32.683 27.6996 31.6996 28.683 30.4899 29.2993C29.1148 30 27.3146 30 23.7143 30H14.2857C10.6854 30 8.88521 30 7.51006 29.2993C6.30045 28.683 5.317 27.6996 4.70067 26.4899C4 25.1148 4 23.3146 4 19.7143V10.2857Z" fill="#2789F6"/>
<path d="M26.4178 17.5008C26.187 17.1876 26.1353 16.8706 26.2615 16.5494C26.5762 15.6924 31.16 10.2494 29.2505 10.2494C27.9383 10.2669 26.3603 10.2494 25.1023 10.2494C24.8687 10.3063 24.7176 10.4288 24.6231 10.6782C23.8874 12.3744 22.9872 14.4444 21.6679 15.7748C21.4944 15.9147 21.3861 15.9088 21.1884 15.857C20.263 14.8827 21.2498 11.5447 20.687 10.2258C20.576 9.96759 20.3333 9.85098 20.0849 9.78532C18.8285 9.48588 15.9589 9.66412 15.4908 10.2669C15.3569 10.4392 15.3382 10.5332 15.4349 10.5487C15.881 10.619 16.1968 10.7874 16.3826 11.0536C16.7333 11.8257 16.9917 15.939 15.9589 15.939C14.9262 15.939 13.2609 11.9023 12.8034 10.7832C12.6817 10.4463 12.3718 10.2531 12.0452 10.1961L8.98996 10.2195C8.45292 10.2195 8.15278 10.4844 8.34312 11.0181C9.93443 14.9682 13.4168 22.6247 18.7578 22.433C19.2928 22.433 20.2133 22.6384 20.6311 22.1746C21.2054 21.4127 20.505 20.0559 21.4897 19.5385C21.7381 19.4063 21.9955 19.5171 22.2088 19.6795C23.3041 20.5135 23.8856 21.9774 25.2363 22.4218C25.4738 22.5 25.6819 22.5196 25.8606 22.4804L28.715 22.4336C29.245 22.4336 29.767 22.1978 29.6574 21.5642C29.2412 20.2055 27.583 18.8089 26.4178 17.5008Z" fill="white"/>
</g>
<defs>
<filter id="filter0_d_1_389" x="0" y="0" width="38" height="38" filterUnits="userSpaceOnUse" color-interpolation-filters="sRGB">
<feFlood flood-opacity="0" result="BackgroundImageFix"/>
<feColorMatrix in="SourceAlpha" type="matrix" values="0 0 0 0 0 0 0 0 0 0 0 0 0 0 0 0 0 0 127 0" result="hardAlpha"/>
<feOffset dy="4"/>
<feGaussianBlur stdDeviation="2"/>
<feComposite in2="hardAlpha" operator="out"/>
<feColorMatrix type="matrix" values="0 0 0 0 0 0 0 0 0 0 0 0 0 0 0 0 0 0 0.25 0"/>
<feBlend mode="normal" in2="BackgroundImageFix" result="effect1_dropShadow_1_389"/>
<feBlend mode="normal" in="SourceGraphic" in2="effect1_dropShadow_1_389" result="shape"/>
</filter>
</defs>
</svg>
