<svg width="1904" height="288" viewBox="0 0 1904 288" fill="none" xmlns="http://www.w3.org/2000/svg">
<path fill-rule="evenodd" clip-rule="evenodd" d="M-476 108L-366.542 138C-257.083 168 -38.1667 228 180.75 252C399.667 276 618.583 264 837.5 234C1056.42 204 1275.33 156 1494.25 114C1713.17 72 1932.08 36 2041.54 18L2151 0V288H2041.54C1932.08 288 1713.17 288 1494.25 288C1275.33 288 1056.42 288 837.5 288C618.583 288 399.667 288 180.75 288C-38.1667 288 -257.083 288 -366.542 288H-476V108Z" fill="#686DE0"/>
</svg>
