<svg width="35" height="30" viewBox="0 0 35 30" fill="none" xmlns="http://www.w3.org/2000/svg">
<g id="Vector" filter="url(#filter0_d_1_382)">
<path d="M4.23381 4.22262C4.35672 2.1025 5.87802 0.440964 7.77189 0.335835C10.5143 0.183602 14.4341 0 17.3875 0C20.3409 0 24.2607 0.183602 27.0031 0.335835C28.897 0.440964 30.4183 2.1025 30.5412 4.22262C30.6589 6.25385 30.775 8.75321 30.775 10.7143C30.775 12.6754 30.6589 15.1747 30.5412 17.206C30.4183 19.3261 28.897 20.9876 27.0031 21.0927C24.2607 21.245 20.3409 21.4286 17.3875 21.4286C14.4341 21.4286 10.5143 21.245 7.77189 21.0927C5.87803 20.9876 4.35672 19.3261 4.23381 17.206C4.11605 15.1747 4 12.6754 4 10.7143C4 8.75321 4.11605 6.25385 4.23381 4.22262Z" fill="#FF0000"/>
<path d="M14.5187 6.42857V15L22.1687 10.7143L14.5187 6.42857Z" fill="white"/>
</g>
<defs>
<filter id="filter0_d_1_382" x="0" y="0" width="34.775" height="29.4286" filterUnits="userSpaceOnUse" color-interpolation-filters="sRGB">
<feFlood flood-opacity="0" result="BackgroundImageFix"/>
<feColorMatrix in="SourceAlpha" type="matrix" values="0 0 0 0 0 0 0 0 0 0 0 0 0 0 0 0 0 0 127 0" result="hardAlpha"/>
<feOffset dy="4"/>
<feGaussianBlur stdDeviation="2"/>
<feComposite in2="hardAlpha" operator="out"/>
<feColorMatrix type="matrix" values="0 0 0 0 0 0 0 0 0 0 0 0 0 0 0 0 0 0 0.25 0"/>
<feBlend mode="normal" in2="BackgroundImageFix" result="effect1_dropShadow_1_382"/>
<feBlend mode="normal" in="SourceGraphic" in2="effect1_dropShadow_1_382" result="shape"/>
</filter>
</defs>
</svg>
